<?xml version="1.0" encoding="utf-8"?>
<!-- Generator: Adobe Illustrator 21.1.0, SVG Export Plug-In . SVG Version: 6.00 Build 0)  -->
<svg version="1.1" id="Capa_1" xmlns="http://www.w3.org/2000/svg" xmlns:xlink="http://www.w3.org/1999/xlink" x="0px" y="0px"
	 viewBox="0 0 90.5 100" style="enable-background:new 0 0 90.5 100;" xml:space="preserve">
<style type="text/css">
	.st0{fill:#FFFFFF;}
	.st1{fill:#D116AA;}
	.st2{fill:#FEFEFE;}
</style>
<title>icono-ergonomico</title>
<path class="st0" d="M59.6,100c2.4,0,3-0.6,3-3c0-1.6,0-3.3,0-4.9c-0.2-1.2,0.7-2.4,1.9-2.5c0.2,0,0.4,0,0.6,0c1.9,0,3.8,0,5.7,0
	c6.2-0.1,10.5-4.4,10.6-10.7c0-2.5,0-4.9,0-7.4c-0.2-1.3,0.7-2.5,1.9-2.7c0.2,0,0.5,0,0.7,0c0.5,0,1,0,1.6,0c2.7,0.1,5-2.1,5.1-4.8
	c0-0.1,0-0.2,0-0.3c0.1-2.9-0.5-5.7-1.8-8.3c-1.6-3.8-3.8-7.3-5.8-10.8c-0.8-1.5-1.3-3.2-1.5-5c-1.4-14.1-8.6-24-21.7-29.5
	c-1.1-0.4-1.9-1.3-2.3-2.4c-2.1-5-6-7.5-11.4-7.7c-2.3,0-4.7,0-7,0c-4.7-0.1-9.1,2.7-11,7c-0.5,1.1-1.4,2-2.5,2.5
	C8.6,16.7-1.2,33.2,0.1,51.6c0.7,9.5,3.5,18.1,10.5,25c1.3,1.3,2.7,2.5,4.2,3.5c1.3,0.8,2.1,2.2,1.9,3.7c-0.1,4.5,0,9,0,13.5
	c0,2.2,0.6,2.8,2.8,2.8c6.7,0,13.4,0,20.1,0L59.6,100z"/>
<path class="st1" d="M19.5,100c-2.1,0-2.8-0.6-2.8-2.8c0-4.5-0.1-9,0-13.5c0.1-1.5-0.6-3-1.9-3.7c-1.5-1-2.9-2.2-4.2-3.5
	c-7-6.8-9.8-15.4-10.5-25C-1.2,33.2,8.6,16.7,25.5,9.5c1.1-0.5,2.1-1.3,2.5-2.5c1.9-4.3,6.3-7.1,11-7c2.3,0,4.7,0,7,0
	c5.4,0.1,9.3,2.7,11.4,7.6c0.4,1.1,1.3,2,2.3,2.4c13,5.6,20.2,15.4,21.7,29.5c0.2,1.8,0.7,3.5,1.5,5c2,3.6,4.1,7.1,5.8,10.8
	c1.2,2.6,1.8,5.4,1.8,8.3c0.1,2.7-2,5-4.8,5.1c-0.1,0-0.2,0-0.3,0c-0.5,0-1,0-1.6,0c-1.3-0.1-2.4,0.8-2.6,2c0,0.2,0,0.4,0,0.6
	c0,2.5,0,4.9,0,7.4c-0.1,6.2-4.4,10.6-10.6,10.7c-1.9,0-3.8,0-5.7,0c-1.2-0.2-2.4,0.7-2.5,1.9c0,0.2,0,0.4,0,0.6c0,1.6,0,3.3,0,4.9
	c0,2.4-0.6,3-3,3H39.6C32.9,100,26.2,100,19.5,100z M35.2,37.6c0.1,1.2-0.5,2.3-1.6,2.9C26.9,45,24.3,52.8,27,60.1
	c2.8,7.3,10.2,11.7,17.9,10.6c7.6-1,13.5-7,14.3-14.6c0.7-6.5-1.9-11.7-7.3-15.4c-1.2-0.7-2-2-1.9-3.5c0.1-8.1,0-16.1,0-24.2
	c0-3.3-1.3-4.6-4.6-4.6c-2,0-4,0-6,0c-2.8,0.1-4.2,1.4-4.2,4.3c0,4.2,0,8.3,0,12.5S35.1,33.4,35.2,37.6z"/>
<path class="st2" d="M35.2,12.6c0-2.8,1.4-4.2,4.2-4.3c2,0,4,0,6,0c3.3,0,4.6,1.3,4.6,4.6c0,8.1,0,16.1,0,24.2
	c-0.1,1.4,0.6,2.8,1.9,3.5c5.4,3.7,8,8.9,7.3,15.4c-0.8,7.6-6.7,13.7-14.3,14.6c-7.7,1.1-15.1-3.3-17.9-10.6
	c-2.7-7.3-0.1-15.1,6.6-19.6c1-0.6,1.6-1.7,1.6-2.9c0-4.2,0-8.3,0-12.5S35.2,16.8,35.2,12.6z M49.6,54.2c-0.1-3.9-3.3-6.9-7.1-6.9
	c-3.9,0.1-6.9,3.3-6.9,7.1c0.1,3.8,3.2,6.9,7,6.9c3.9,0,7-3.1,7-7C49.6,54.3,49.6,54.3,49.6,54.2z"/>
<path class="st1" d="M42.6,61.4c3.9,0,7-3.2,6.9-7.1s-3.2-7-7.1-6.9c-3.8,0-6.9,3.2-6.9,7C35.5,58.2,38.7,61.4,42.6,61.4
	C42.5,61.4,42.6,61.4,42.6,61.4z"/>
</svg>
