<?xml version="1.0" encoding="utf-8"?>
<!-- Generator: Adobe Illustrator 21.1.0, SVG Export Plug-In . SVG Version: 6.00 Build 0)  -->
<svg version="1.1" id="Capa_1" xmlns="http://www.w3.org/2000/svg" xmlns:xlink="http://www.w3.org/1999/xlink" x="0px" y="0px"
	 viewBox="0 0 100 100" style="enable-background:new 0 0 100 100;" xml:space="preserve">
<style type="text/css">
	.st0{fill:#D116AA;}
</style>
<g id="adjustments" transform="translate(-2 -3)">
	<path id="Trazado_2" class="st0" d="M22.9,18c0-3.2-2.6-5.8-5.8-5.8s-5.8,2.6-5.8,5.8l0,0v42.4C5.7,63.6,3.8,70.7,7,76.3
		c1,1.8,2.5,3.2,4.3,4.3V88c0,3.2,2.6,5.8,5.8,5.8s5.8-2.6,5.8-5.8v-7.4c5.6-3.2,7.5-10.3,4.3-15.9c-1-1.8-2.5-3.2-4.3-4.3
		C22.9,60.4,22.9,18,22.9,18z"/>
	<path id="Trazado_3" class="st0" d="M57.8,18c0-3.2-2.6-5.8-5.8-5.8s-5.8,2.6-5.8,5.8l0,0v7.4c-5.6,3.2-7.5,10.4-4.3,15.9
		c1,1.8,2.5,3.2,4.3,4.3V88c0,3.2,2.6,5.8,5.8,5.8s5.8-2.6,5.8-5.8V45.6c5.6-3.2,7.5-10.4,4.3-15.9c-1-1.8-2.5-3.2-4.3-4.3V18z"/>
	<path id="Trazado_4" class="st0" d="M87,12.2c3.2,0,5.8,2.6,5.8,5.8v42.4c5.6,3.2,7.5,10.3,4.3,15.9c-1,1.8-2.5,3.2-4.3,4.3V88
		c0,3.2-2.6,5.8-5.8,5.8s-5.8-2.6-5.8-5.8v-7.4c-5.6-3.2-7.5-10.3-4.3-15.9c1-1.8,2.5-3.2,4.3-4.3V18C81.1,14.8,83.7,12.2,87,12.2
		L87,12.2z"/>
</g>
</svg>
