<?xml version="1.0" encoding="utf-8"?>
<!-- Generator: Adobe Illustrator 21.1.0, SVG Export Plug-In . SVG Version: 6.00 Build 0)  -->
<svg version="1.1" id="Capa_1" xmlns="http://www.w3.org/2000/svg" xmlns:xlink="http://www.w3.org/1999/xlink" x="0px" y="0px"
	 viewBox="0 0 100 100" style="enable-background:new 0 0 100 100;" xml:space="preserve">
<style type="text/css">
	.st0{fill:#D116AA;}
	.st1{fill:#FFFFFF;}
</style>
<g id="XMLID_1_">
	<g>
		<path class="st0" d="M50,9.2c22.6,0,40.8,18.3,40.8,40.8S72.6,90.8,50,90.8S9.2,72.6,9.2,50S27.4,9.2,50,9.2z M68,68
			c2-2,2-5.2,0-7.2L55.1,47.9V29.6c0-2.8-2.3-5.1-5.1-5.1s-5.1,2.3-5.1,5.1V50c0,1.4,0.5,2.7,1.5,3.6L60.8,68C62.8,70,66,70,68,68z"
			/>
		<path class="st1" d="M68,60.8c2,2,2,5.2,0,7.2s-5.2,2-7.2,0L46.4,53.6c-1-0.9-1.5-2.2-1.5-3.6V29.6c0-2.8,2.3-5.1,5.1-5.1
			s5.1,2.3,5.1,5.1v18.3L68,60.8z"/>
	</g>
	<g>
	</g>
</g>
</svg>
