<svg id="Capa_1" data-name="Capa 1" xmlns="http://www.w3.org/2000/svg" viewBox="0 0 68 69"><defs><style>.cls-1{fill:#fdfefe;}.cls-2{fill:#d116aa;}.cls-3{fill:#f4f7f8;}</style></defs><title>Firma</title><path class="cls-1" d="M34.41,1.61A33.43,33.43,0,1,0,67.78,35.06,33.54,33.54,0,0,0,34.41,1.61Z"/><path class="cls-2" d="M34.41,1.61A33.43,33.43,0,1,1,.86,34.41,33.44,33.44,0,0,1,34.41,1.61Zm0,54.8c1.88,0,3.76,0,5.64,0a38.34,38.34,0,0,0,6.23-.15c5.68-1,9.37-5.51,9.46-11.69q.13-9.83,0-19.67A11.38,11.38,0,0,0,44.21,13.65c-6.68,0-13.36,0-20,0a11.36,11.36,0,0,0-11.23,10.9q-.17,10.13,0,20.27c.1,6.87,5,11.57,11.87,11.59Z"/><path class="cls-3" d="M34.4,56.41H24.8c-6.88,0-11.77-4.71-11.87-11.59s-.1-13.52,0-20.27a11.36,11.36,0,0,1,11.23-10.9c6.68,0,13.36,0,20,0A11.38,11.38,0,0,1,55.72,24.89q.13,9.83,0,19.67c-.08,6.18-3.77,10.68-9.46,11.69A38.34,38.34,0,0,1,40,56.4C38.16,56.43,36.28,56.41,34.4,56.41ZM52.29,35h0c0-1.84,0-3.68,0-5.52a24.67,24.67,0,0,0-.13-4.79A9.5,9.5,0,0,0,42.5,17c-5.32,0-10.63,0-16,0-6.19,0-10.2,4-10.26,10.18q-.07,8,0,16c.06,5.81,4.1,9.95,9.73,10s11.11,0,16.67,0A9.45,9.45,0,0,0,52.26,44C52.41,41,52.29,38,52.29,35Z"/><path class="cls-2" d="M52.29,35c0,3,.13,6,0,9a9.45,9.45,0,0,1-9.57,9.11q-8.33.07-16.67,0c-5.63,0-9.67-4.18-9.73-10q-.08-8,0-16C16.34,20.94,20.36,17,26.55,17c5.32,0,10.63,0,16,0a9.5,9.5,0,0,1,9.63,7.72,24.67,24.67,0,0,1,.13,4.79c0,1.84,0,3.68,0,5.52ZM22.48,35A11.87,11.87,0,1,0,34.42,23.34,11.75,11.75,0,0,0,22.48,35Zm27.4-11.06a3.24,3.24,0,0,0-3.28-3.36A3.41,3.41,0,0,0,43.17,24a3.46,3.46,0,0,0,3.41,3.32A3.34,3.34,0,0,0,49.88,23.93Z"/><path class="cls-3" d="M22.48,35a11.87,11.87,0,0,1,23.73.07A11.86,11.86,0,0,1,22.48,35Zm3.36,0a8.39,8.39,0,0,0,8.38,8.37A8.36,8.36,0,1,0,25.84,35Z"/><path class="cls-3" d="M49.88,23.93a3.34,3.34,0,0,1-3.3,3.36A3.46,3.46,0,0,1,43.17,24a3.41,3.41,0,0,1,3.43-3.39A3.24,3.24,0,0,1,49.88,23.93Z"/><path class="cls-2" d="M25.84,35a8.5,8.5,0,1,1,8.38,8.37A8.39,8.39,0,0,1,25.84,35Z"/></svg>