<svg id="Capa_1" data-name="Capa 1" xmlns="http://www.w3.org/2000/svg" viewBox="0 0 69 70"><defs><style>.cls-1{fill:#d116aa;}.cls-2{fill:#f7fafb;}</style></defs><title>Firma</title><path class="cls-1" d="M37.2,70H31.44c-.15-.35-.47-.23-.73-.26A35.24,35.24,0,0,1,21,67.27C6,60.87-2.27,45.28.69,28.91,4.21,9.49,22.94-1.86,40.79,1.43c19,3.51,31.53,22,27.57,40.69C65.37,56.26,56.48,65.06,42.69,69,40.89,69.55,39,69.57,37.2,70Zm.51-39a6,6,0,0,1-.09-2.24c.1-.74-.19-1-.93-1-1.72,0-3.44,0-5.16,0-2.38,0-2.37,0-2.38,2.35,0,7.24,0,14.47-.1,21.71,0,1,.3,1.32,1.29,1.29,2-.07,4.08-.07,6.12,0,1,0,1.24-.37,1.18-1.27-.24-3.83.1-7.67,0-11.51,0-.76,0-1.52,0-2.28A4.59,4.59,0,0,1,42,33.85c2-.15,3.58,1.14,4.13,3.39a10.44,10.44,0,0,1,.23,2.5c0,4.08,0,8.16,0,12.24,0,.67.06,1.17.94,1.16q3.36-.06,6.72,0c.65,0,.85-.26.84-.85-.07-5.32.21-10.64-.15-15.95-.31-4.54-3-7.89-6.87-8.81S40.39,27.4,37.71,31ZM16.08,40.36c0,3.88,0,7.76,0,11.63,0,.82.21,1.12,1.07,1.11,2.16,0,4.32,0,6.47,0,.79,0,.93-.34.93-1q0-11.69,0-23.39c0-.83-.31-1-1.06-1-2.12,0-4.24.05-6.36,0-.87,0-1.07.3-1.06,1.11C16.1,32.68,16.08,36.52,16.08,40.36Zm4.16-16c2.78,0,4.83-1.81,4.85-4.36a4.4,4.4,0,0,0-4.71-4.48c-2.76,0-4.73,1.77-4.78,4.29A4.39,4.39,0,0,0,20.24,24.4Z"/><path class="cls-2" d="M37.71,31c2.69-3.57,6.15-4.4,10.13-3.47s6.56,4.27,6.87,8.81c.36,5.31.08,10.63.15,15.95,0,.59-.19.86-.84.85q-3.36,0-6.72,0c-.88,0-.94-.48-.94-1.16,0-4.08,0-8.16,0-12.24a10.44,10.44,0,0,0-.23-2.5C45.57,35,44,33.7,42,33.85a4.59,4.59,0,0,0-4.33,4.21c0,.76,0,1.52,0,2.28.1,3.84-.23,7.67,0,11.51.06.9-.18,1.3-1.18,1.27-2-.07-4.08-.07-6.12,0-1,0-1.3-.29-1.29-1.29.06-7.24.07-14.47.1-21.71,0-2.35,0-2.35,2.38-2.35,1.72,0,3.44,0,5.16,0,.74,0,1,.24.93,1A6,6,0,0,0,37.71,31Z"/><path class="cls-2" d="M16.08,40.36c0-3.84,0-7.68,0-11.51,0-.81.19-1.13,1.06-1.11,2.12.06,4.24,0,6.36,0,.75,0,1.06.16,1.06,1q0,11.69,0,23.39c0,.67-.13,1-.93,1-2.16-.05-4.32-.07-6.47,0-.85,0-1.07-.29-1.07-1.11C16.1,48.12,16.08,44.24,16.08,40.36Z"/><path class="cls-2" d="M20.24,24.4a4.39,4.39,0,0,1-4.64-4.55c0-2.52,2-4.3,4.78-4.29A4.4,4.4,0,0,1,25.08,20C25.07,22.59,23,24.43,20.24,24.4Z"/></svg>