<?xml version="1.0" encoding="utf-8"?>
<!-- Generator: Adobe Illustrator 21.1.0, SVG Export Plug-In . SVG Version: 6.00 Build 0)  -->
<svg version="1.1" id="Capa_1" xmlns="http://www.w3.org/2000/svg" xmlns:xlink="http://www.w3.org/1999/xlink" x="0px" y="0px"
	 viewBox="0 0 92.1 96.1" style="enable-background:new 0 0 92.1 96.1;" xml:space="preserve">
<style type="text/css">
	.st0{fill:#1F1F1F;}
	.st1{fill:#2E2E2D;}
	.st2{fill:#A30485;}
	.st3{fill:#D116AA;}
	.st4{fill:#4D4D4D;}
</style>
<path class="st0" d="M62.7,55.8V92c0,5.4,9.8,5.4,9.8,0V55.8C72.5,50.4,62.7,50.4,62.7,55.8z M29.4,55.8V92c0,5.4-9.8,5.4-9.8,0
	V55.8C19.6,50.4,29.4,50.4,29.4,55.8z"/>
<path class="st1" d="M62.7,55.8v25.8c0,5.4,9.8,5.4,9.8,0V55.8C72.5,50.4,62.7,50.4,62.7,55.8z M29.4,81.6c0,5.4-9.8,5.4-9.8,0V55.8
	c0-5.4,9.8-5.4,9.8,0V81.6z"/>
<path class="st2" d="M72.5,58.6v30.6c0,3.6,7.4,3.6,7.4,0V58.6C79.8,55,72.5,54.9,72.5,58.6z M19.6,58.6v30.6c0,3.6-7.4,3.6-7.4,0
	V58.6C12.3,55,19.6,54.9,19.6,58.6z"/>
<path class="st3" d="M72.5,58.6v20.9c0,3.6,7.4,3.6,7.4,0V58.6C79.8,55,72.5,54.9,72.5,58.6z M19.6,79.5c0,3.6-7.4,3.6-7.4,0V58.6
	c0-3.6,7.4-3.7,7.4,0V79.5z"/>
<path class="st4" d="M4.9,53.6c0,0-3.9,12,5.6,17.8l-2.3,4.7c-11.3-6.9-5.9-23.3-5.9-23.4L4.9,53.6z"/>
<path class="st4" d="M87.2,53.6c0,0,3.8,12-5.6,17.8l2.3,4.7c11.3-7,5.9-23.3,5.9-23.4L87.2,53.6z"/>
<path class="st1" d="M88.7,41.9h-3.8v4.5c-2.7,1-4.1,4.1-3,6.8c1,2.7,4.1,4.1,6.8,3c2.7-1,4.1-4.1,3-6.8c-0.5-1.4-1.6-2.5-3-3V41.9z
	 M7.1,46.3c2.7,1.1,4,4.1,3,6.8c-1.1,2.7-4.1,4-6.8,3c-2-0.8-3.3-2.7-3.3-4.8c0-2.2,1.3-4.1,3.4-4.9v-4.5h3.8V46.3z"/>
<path class="st3" d="M2.1,42.7h6.3c9.7-42.9,65.5-42.9,75.2,0h6.3C81.6-14.2,10.5-14.3,2.1,42.7L2.1,42.7z"/>
<path class="st2" d="M7.1,42.7h1.4c9.7-42.9,65.5-42.9,75.2,0h1.3C77.4-6.5,14.6-6.6,7.1,42.7L7.1,42.7z"/>
<path class="st1" d="M12.3,88.5c-2.7-1.8-4.6-7.7-4.6-14.6s2-12.8,4.6-14.7V88.5z"/>
<path class="st1" d="M79.8,88.5c2.7-1.8,4.6-7.7,4.6-14.6s-2-12.8-4.6-14.7V88.5z"/>
</svg>
