<?xml version="1.0" encoding="utf-8"?>
<!-- Generator: Adobe Illustrator 21.1.0, SVG Export Plug-In . SVG Version: 6.00 Build 0)  -->
<svg version="1.1" id="Capa_1" xmlns="http://www.w3.org/2000/svg" xmlns:xlink="http://www.w3.org/1999/xlink" x="0px" y="0px"
	 viewBox="0 0 91.4 85.1" style="enable-background:new 0 0 91.4 85.1;" xml:space="preserve">
<style type="text/css">
	.st0{fill:#54004C;}
	.st1{fill:#D116AA;}
	.st2{fill:#A30485;}
	.st3{fill:#280223;}
</style>
<path class="st0" d="M7.8,21.8c0,0-12.4,18.4-5.9,40.5c0.7-0.4,1.5-0.7,2.2-1.1c-2-11.7,0.5-28.1,7.9-36.7
	C10.6,23.6,9.2,22.7,7.8,21.8z"/>
<path class="st0" d="M83.6,21.8c0,0,12.4,18.4,6,40.5c-0.7-0.4-1.5-0.7-2.2-1.1c2.1-11.7-0.5-28.1-7.9-36.7
	C80.8,23.6,82.2,22.7,83.6,21.8L83.6,21.8z"/>
<path class="st1" d="M78.2,26.8c1.9,2.4,8.3-3.9,6.7-6.1C67.2-6.9,24.2-6.9,6.5,20.6c-1.6,2.2,4.9,8.5,6.7,6.1
	C31.2,5.6,60.8,5.6,78.2,26.8z"/>
<path class="st2" d="M78.2,26.8c0.5,0.7,1.5,0.7,2.5,0.2c0-0.2-0.1-0.3-0.2-0.5C64.8,2.1,26.6,2.1,11,26.5c-0.1,0.1-0.2,0.3-0.2,0.5
	c1,0.5,1.9,0.5,2.5-0.2C31.2,5.6,60.8,5.6,78.2,26.8z"/>
<path class="st1" d="M18.6,47c1,5.7,2.1,11.5,3.1,17.2s2.1,11.5,3.2,17.2c0.9,4.5-11.3,5.1-12.1,0.8L9.8,66.3
	c-1-5.3-1.9-10.6-2.9-15.8C6.1,46.2,17.7,42.4,18.6,47z"/>
<path class="st1" d="M72.8,47c-1,5.7-2.1,11.5-3.1,17.2s-2.2,11.5-3.2,17.2c-0.8,4.5,11.3,5.1,12.1,0.8l2.9-15.8
	c1-5.3,1.9-10.6,2.9-15.8C85.3,46.2,73.7,42.4,72.8,47L72.8,47z"/>
<path class="st2" d="M18.6,47c1,5.7,2.1,11.5,3.1,17.2s2.1,11.5,3.2,17.2c0.4,2-2,3.3-4.7,3.6l0,0c1-1.9-1.9-1.2-2.1-1.7
	c-1-2,2.3-2.3,2.7-3c1.2-1.8-2.3-3.4-3.5-4.3c-3.2-2.2-1.1-4.6,0.8-6.8c1.4-1.7,0.3-3.8-1.3-5.1c-4.5-3.8-0.4-6.3-0.4-7.4
	c0-3.8-5.7-2.1-5.1-4.4c0.6-2.6,3.6-2.6,4.4-5c0.6-2-4.5-1-5.6-1C13.3,44.5,18,44.1,18.6,47L18.6,47z"/>
<path class="st2" d="M72.8,47c-1,5.7-2.1,11.5-3.1,17.2s-2.2,11.5-3.2,17.2c-0.4,2,2,3.3,4.7,3.6l0,0c-1-1.9,1.9-1.2,2.1-1.7
	c1-2-2.3-2.3-2.7-3c-1.2-1.8,2.3-3.4,3.5-4.3c3.2-2.2,1.1-4.6-0.8-6.8c-1.4-1.7-0.3-3.8,1.3-5.1c4.5-3.8,0.4-6.3,0.4-7.4
	c0-3.8,5.7-2.1,5.1-4.4c-0.6-2.6-3.6-2.6-4.4-5c-0.6-2,4.5-1,5.7-1C78.1,44.5,73.4,44.1,72.8,47L72.8,47z"/>
<path class="st0" d="M6.9,50.5L6.9,50.5c-1.6,0.3-2.7,1.9-2.4,3.5l4.8,25.8c0.3,1.6,1.8,2.6,3.5,2.4l0,0L6.9,50.5z"/>
<path class="st0" d="M84.5,50.5L84.5,50.5c1.6,0.3,2.7,1.8,2.4,3.5l-4.8,25.8c-0.3,1.6-1.8,2.6-3.4,2.4l0,0L84.5,50.5z"/>
<path class="st3" d="M4.9,55.9c-2.8,2.3-4.3,7-3.4,12s4,9,7.4,10.1L4.9,55.9z"/>
<path class="st3" d="M86.6,55.9c2.8,2.3,4.3,7,3.3,12s-4,9-7.4,10.1L86.6,55.9z"/>
</svg>
